<?xml version="1.0" standalone="no"?>
<!DOCTYPE svg PUBLIC "-//W3C//DTD SVG 20010904//EN"
 "http://www.w3.org/TR/2001/REC-SVG-20010904/DTD/svg10.dtd">
<svg version="1.0" xmlns="http://www.w3.org/2000/svg"
 width="225.000000pt" height="225.000000pt" viewBox="0 0 225.000000 225.000000"
 preserveAspectRatio="xMidYMid meet">
<metadata>
Created by potrace 1.14, written by Peter Selinger 2001-2017
</metadata>
<g transform="translate(0.000000,225.000000) scale(0.100000,-0.100000)"
fill="#000000" stroke="none">
<path d="M1792 2148 c-46 -29 -213 -83 -331 -107 -137 -29 -325 -50 -511 -57
-85 -4 -161 -12 -169 -17 -23 -19 -692 -1368 -689 -1390 4 -27 125 -115 258
-189 272 -151 614 -256 934 -287 126 -13 256 -14 272 -3 17 11 604 1217 604
1240 0 25 -33 46 -59 37 -12 -4 -113 -200 -308 -598 l-290 -592 -84 3 c-165 5
-397 42 -539 84 -42 13 -32 14 140 16 102 1 216 7 255 14 l70 13 367 750 c202
413 368 758 368 767 0 22 -36 47 -60 41 -12 -3 -127 -228 -376 -738 -264 -539
-364 -735 -379 -740 -45 -14 -354 -18 -449 -6 -96 12 -285 54 -311 69 -7 4 73
7 178 7 203 1 284 14 398 64 l46 20 381 781 c210 429 382 788 382 798 0 44
-44 53 -98 20z"/>
</g>
</svg>
