<?xml version="1.0" standalone="no"?>
<!DOCTYPE svg PUBLIC "-//W3C//DTD SVG 20010904//EN"
 "http://www.w3.org/TR/2001/REC-SVG-20010904/DTD/svg10.dtd">
<svg version="1.0" xmlns="http://www.w3.org/2000/svg"
 width="752.000000pt" height="752.000000pt" viewBox="0 0 752.000000 752.000000"
 preserveAspectRatio="xMidYMid meet">
<metadata>
Created by potrace 1.14, written by Peter Selinger 2001-2017
</metadata>
<g transform="translate(0.000000,752.000000) scale(0.100000,-0.100000)"
fill="#000000" stroke="none">
<path d="M4515 6121 c-11 -5 -42 -35 -70 -67 -123 -144 -274 -299 -374 -384
-30 -25 -59 -50 -65 -56 -93 -88 -391 -276 -546 -344 -128 -56 -296 -111 -380
-125 -19 -3 -48 -8 -63 -11 -63 -13 -88 -15 -243 -20 -178 -5 -294 8 -471 51
-114 29 -142 26 -177 -15 l-23 -28 1 -1785 1 -1785 23 -25 c28 -30 131 -66
236 -83 21 -3 46 -7 55 -9 9 -2 44 -6 76 -10 33 -4 71 -9 85 -11 158 -25 876
-25 1032 1 13 2 55 6 93 9 124 11 431 53 446 62 4 2 23 6 43 10 86 13 274 77
426 144 265 116 757 447 789 529 6 17 9 466 8 1247 -2 1347 3 1242 -65 1271
-30 12 -38 12 -70 -4 -20 -10 -42 -28 -48 -41 -8 -17 -12 -344 -11 -1205 l0
-1181 -39 -33 c-22 -18 -61 -49 -89 -68 -27 -19 -70 -49 -95 -66 -91 -65 -229
-144 -365 -210 -123 -60 -295 -132 -295 -124 0 1 40 28 89 59 103 65 236 164
336 249 89 76 247 228 269 258 14 21 16 156 16 1521 0 1320 -2 1502 -15 1528
-19 36 -43 50 -87 50 -46 0 -76 -23 -87 -68 -6 -22 -9 -611 -9 -1491 l1 -1454
-59 -56 c-213 -203 -434 -365 -661 -483 -104 -55 -323 -152 -323 -144 0 2 26
21 58 42 254 167 501 391 720 653 l62 75 0 1778 c0 1958 4 1824 -61 1847 -37
13 -46 13 -74 2z m-60 -1964 l0 -1595 -82 -93 c-314 -362 -713 -645 -1083
-769 -102 -34 -288 -75 -385 -85 -163 -16 -368 -4 -532 31 l-73 16 0 872 c0
479 -1 1219 -1 1644 -1 425 1 775 4 778 3 3 42 -2 88 -11 222 -42 514 -40 717
6 106 23 143 33 227 61 366 120 705 338 1019 654 50 50 93 90 96 88 3 -1 5
-720 5 -1597z"/>
</g>
</svg>
