<?xml version="1.0" standalone="no"?>
<!DOCTYPE svg PUBLIC "-//W3C//DTD SVG 20010904//EN"
 "http://www.w3.org/TR/2001/REC-SVG-20010904/DTD/svg10.dtd">
<svg version="1.0" xmlns="http://www.w3.org/2000/svg"
 width="512.000000pt" height="512.000000pt" viewBox="0 0 512.000000 512.000000"
 preserveAspectRatio="xMidYMid meet">
<metadata>
Created by potrace 1.14, written by Peter Selinger 2001-2017
</metadata>
<g transform="translate(0.000000,512.000000) scale(0.100000,-0.100000)"
fill="#000000" stroke="none">
<path d="M2428 4905 c-2 -2 -37 -5 -78 -8 -41 -4 -88 -9 -105 -11 -16 -3 -43
-8 -60 -10 -257 -38 -574 -155 -817 -302 -240 -146 -434 -320 -637 -570 -19
-24 -138 -200 -145 -214 -3 -8 -20 -37 -36 -65 -135 -228 -246 -572 -276 -855
-12 -119 -13 -144 -13 -310 -1 -345 39 -570 161 -900 23 -63 146 -303 189
-370 312 -483 764 -825 1293 -979 174 -51 250 -66 436 -87 120 -14 420 -8 530
11 14 3 48 7 75 11 28 3 109 21 180 39 568 143 1068 505 1381 1001 46 73 135
235 139 254 1 3 14 32 28 64 44 96 105 282 131 402 24 109 28 133 44 259 15
126 7 585 -12 680 -2 11 -7 41 -10 66 -16 118 -96 382 -158 519 -192 425 -495
777 -883 1025 -80 51 -281 155 -300 155 -8 0 -15 3 -15 8 0 4 -15 12 -32 19
-86 30 -283 94 -302 97 -11 2 -39 9 -61 15 -22 6 -57 13 -79 17 -21 3 -48 8
-60 10 -21 4 -54 8 -156 20 -54 6 -347 13 -352 9z"/>
</g>
</svg>
