<?xml version="1.0" standalone="no"?>
<!DOCTYPE svg PUBLIC "-//W3C//DTD SVG 20010904//EN"
 "http://www.w3.org/TR/2001/REC-SVG-20010904/DTD/svg10.dtd">
<svg version="1.0" xmlns="http://www.w3.org/2000/svg"
 width="882.000000pt" height="882.000000pt" viewBox="0 0 882.000000 882.000000"
 preserveAspectRatio="xMidYMid meet">
<metadata>
Created by potrace 1.14, written by Peter Selinger 2001-2017
</metadata>
<g transform="translate(0.000000,882.000000) scale(0.100000,-0.100000)"
fill="#000000" stroke="none">
<path d="M7083 8374 c-202 -108 -292 -148 -508 -226 -354 -127 -915 -261
-1345 -322 -159 -22 -345 -47 -395 -51 -33 -4 -71 -8 -85 -10 -14 -2 -56 -7
-95 -10 -38 -3 -86 -8 -105 -10 -19 -3 -71 -7 -115 -10 -44 -4 -96 -8 -115
-10 -19 -2 -89 -7 -155 -10 -66 -4 -142 -9 -170 -11 -27 -2 -180 -6 -340 -9
-562 -10 -556 -9 -609 -107 -51 -95 -2358 -4706 -2482 -4963 -67 -137 -127
-267 -134 -288 -26 -83 14 -136 209 -280 551 -407 1243 -774 1977 -1050 1015
-381 2168 -597 3214 -601 200 0 238 8 270 56 16 27 488 971 565 1133 29 61
123 254 210 430 86 176 199 406 250 510 51 105 152 312 225 460 73 149 185
378 250 510 65 132 175 357 245 500 447 912 565 1164 565 1205 0 25 -42 91
-75 116 -45 34 -115 43 -168 21 -26 -11 -47 -33 -74 -74 -31 -49 -370 -727
-566 -1133 -30 -63 -121 -250 -202 -415 -194 -394 -361 -737 -500 -1020 -62
-126 -172 -351 -245 -500 -73 -148 -176 -360 -230 -470 -310 -635 -433 -885
-455 -925 l-24 -45 -238 2 c-556 5 -1213 92 -1858 248 -277 67 -699 192 -653
194 9 1 76 -6 150 -14 585 -63 1314 -43 1828 51 110 20 139 35 174 87 25 37
330 647 541 1082 40 83 137 281 215 440 78 160 184 376 235 480 51 105 155
316 230 470 76 154 184 375 240 490 56 116 173 354 260 530 86 176 190 388
230 470 40 83 152 312 250 510 613 1244 618 1256 616 1324 -3 114 -162 185
-268 120 -31 -19 -60 -73 -262 -483 -271 -549 -301 -610 -301 -619 0 -6 -108
-229 -350 -722 -78 -159 -184 -375 -235 -480 -102 -210 -272 -557 -475 -970
-73 -148 -172 -351 -220 -450 -48 -99 -165 -337 -260 -530 -95 -192 -196 -399
-225 -460 -225 -468 -465 -943 -479 -948 -27 -11 -211 -37 -356 -52 -36 -4
-76 -9 -90 -11 -165 -25 -933 -25 -1185 0 -16 2 -61 6 -100 10 -281 28 -763
122 -1049 206 -159 46 -318 100 -356 121 l-35 20 40 -6 c22 -2 67 -7 100 -10
33 -3 78 -7 100 -10 22 -2 94 -7 160 -11 66 -3 134 -8 150 -10 46 -6 525 -6
591 1 334 30 324 29 494 56 248 41 506 113 734 205 207 85 166 31 423 553 124
251 251 510 283 576 32 66 126 260 210 430 84 171 187 382 230 470 73 150 133
274 505 1030 81 165 176 359 210 430 61 126 157 319 380 765 59 118 154 310
210 425 132 270 298 609 520 1060 l176 360 -6 55 c-8 63 -43 123 -83 139 -15
6 -48 13 -74 16 -40 4 -57 -1 -115 -31z m-289 -526 c-14 -44 -186 -402 -634
-1313 -78 -159 -191 -389 -250 -510 -135 -275 -310 -633 -475 -970 -70 -143
-178 -363 -240 -490 -62 -126 -177 -360 -255 -520 -78 -159 -173 -353 -210
-430 -37 -77 -169 -345 -292 -595 -123 -250 -237 -482 -252 -516 l-28 -60
-126 -47 c-209 -76 -469 -144 -652 -170 -194 -28 -251 -35 -381 -44 -204 -14
-840 -5 -869 12 -3 1 -48 6 -100 10 -52 4 -97 8 -100 10 -3 1 -36 6 -75 10
-58 6 -238 33 -405 61 -156 26 -560 117 -587 133 -9 5 48 129 203 441 252 509
2233 4472 2237 4476 1 2 81 5 177 8 363 12 674 27 865 41 33 3 94 7 135 10 41
3 91 8 110 10 19 2 67 7 105 10 434 36 1015 131 1430 234 190 47 398 113 550
175 61 25 114 45 118 45 5 1 5 -9 1 -21z"/>
</g>
</svg>
